<?xml version="1.0" encoding="UTF-8"?>
<svg version="1.1" xmlns="http://www.w3.org/2000/svg" width="349" height="306">
<path d="M0 0 C115.17 0 230.34 0 349 0 C349 100.98 349 201.96 349 306 C233.83 306 118.66 306 0 306 C0 205.02 0 104.04 0 0 Z " fill="#0B1557" transform="translate(0,0)"/>
<path d="M0 0 C1.25039062 -0.02449219 2.50078125 -0.04898438 3.7890625 -0.07421875 C5.00851563 -0.07808594 6.22796875 -0.08195312 7.484375 -0.0859375 C8.59006836 -0.09415527 9.69576172 -0.10237305 10.83496094 -0.11083984 C20.11125199 1.20884983 25.63562918 7.20515088 31.97265625 13.671875 C32.87696884 14.57947571 33.78128143 15.48707642 34.71299744 16.42218018 C36.61924618 18.3360291 38.51889032 20.25610265 40.41333008 22.18164062 C42.82078493 24.62858192 45.23880104 27.06471581 47.66121769 29.49683762 C49.99770259 31.84338351 52.32907254 34.19496239 54.66015625 36.546875 C55.51762955 37.41173523 56.37510284 38.27659546 57.25856018 39.16766357 C61.5429793 43.51959661 65.67634968 47.94201627 69.66209412 52.56842041 C72.04497123 55.27944831 74.58330114 57.81448593 77.15625 60.34375 C77.68464478 60.86835815 78.21303955 61.39296631 78.75744629 61.93347168 C80.41916351 63.58316081 82.08412137 65.22951394 83.75 66.875 C96.07650963 79.05061677 96.07650963 79.05061677 101.39013672 85.28369141 C105.23982583 89.61244395 109.39140139 93.66356088 113.49487305 97.75024414 C115.08045796 99.33039644 116.66053442 100.91591976 118.24023438 102.50195312 C119.24967892 103.51073806 120.25943299 104.51921338 121.26953125 105.52734375 C122.17807861 106.43476318 123.08662598 107.34218262 124.02270508 108.27709961 C127.95323678 111.97928737 131.42762949 111.53919857 136.58203125 111.5859375 C138.28451474 111.61401104 139.98698857 111.64267554 141.68945312 111.671875 C144.37540364 111.71310293 147.06117476 111.74998699 149.74731445 111.77636719 C152.33843341 111.80402614 154.92873037 111.84990224 157.51953125 111.8984375 C158.31865433 111.90169037 159.1177774 111.90494324 159.94111633 111.90829468 C164.5138034 112.00876913 167.54098476 112.41806522 171.25 115.375 C173.92134463 119.38201694 174.07653281 122.66376296 173.25 127.375 C170.72031526 130.65675318 169.17268669 132.06743777 165.25 133.375 C163.83512438 133.48030744 162.41598169 133.5334025 160.99731445 133.55200195 C160.14244949 133.56483719 159.28758453 133.57767242 158.40681458 133.59089661 C157.48494858 133.59828354 156.56308258 133.60567047 155.61328125 133.61328125 C154.6598735 133.621353 153.70646576 133.62942474 152.72416687 133.63774109 C150.70423191 133.65157449 148.68427365 133.66229998 146.66430664 133.67016602 C143.59150166 133.68733793 140.51978424 133.7312261 137.44726562 133.77539062 C135.48177872 133.78552164 133.51628269 133.79403646 131.55078125 133.80078125 C130.18316399 133.82704338 130.18316399 133.82704338 128.78791809 133.85383606 C119.81839376 133.82369573 114.23840133 130.81037266 107.94920349 124.55303955 C107.35623978 123.94256775 106.76327606 123.33209595 106.15234375 122.703125 C105.5143837 122.06187683 104.87642365 121.42062866 104.21913147 120.75994873 C102.1990025 118.72419507 100.19345798 116.67470764 98.1875 114.625 C96.83876536 113.26475711 95.48916271 111.90537431 94.13867188 110.546875 C92.82995456 109.22472462 91.52198698 107.90183162 90.21484375 106.578125 C89.32236183 105.67456268 89.32236183 105.67456268 88.41184998 104.75274658 C85.43569974 101.7100781 82.56178962 98.61501849 79.77954102 95.39355469 C76.2944703 91.37175297 72.59856914 87.61212159 68.8125 83.875 C68.12873291 83.19501953 67.44496582 82.51503906 66.74047852 81.81445312 C64.57942945 79.66549074 62.41515274 77.51982721 60.25 75.375 C57.39283983 72.54466163 54.53916546 69.71087327 51.6875 66.875 C50.72469116 65.92463867 50.72469116 65.92463867 49.74243164 64.95507812 C45.97690808 61.20969631 42.43572092 57.33832407 38.96499634 53.31930542 C36.26685971 50.26040579 33.40011668 47.3820478 30.51171875 44.50390625 C29.90487747 43.89610825 29.29803619 43.28831024 28.67280579 42.66209412 C27.40606271 41.39467731 26.13808327 40.12849507 24.86889648 38.86352539 C22.92118197 36.92122735 20.9789407 34.9735686 19.03710938 33.02539062 C17.79980017 31.78874125 16.56218132 30.55240158 15.32421875 29.31640625 C14.74403488 28.73419815 14.16385101 28.15199005 13.56608582 27.55213928 C10.05579095 23.74032793 10.05579095 23.74032793 5.33984375 22.2421875 C1.48566499 21.86373699 1.48566499 21.86373699 -1.75 23.375 C-1.92953634 25.43230981 -2.01817412 27.49784696 -2.0625 29.5625 C-2.09988281 30.69042969 -2.13726562 31.81835938 -2.17578125 32.98046875 C-1.2333377 40.49407833 4.87807758 45.22355167 10.0625 50.25 C14.04756163 54.1340319 17.98448664 57.99691308 21.60546875 62.2265625 C26.04221704 67.38416414 30.90798387 72.10147066 35.75 76.875 C41.21168734 82.25943576 46.57070208 87.6364957 51.56054688 93.46289062 C54.62388854 96.92995593 57.94850508 100.13675211 61.25 103.375 C65.86825953 107.90478713 70.2819728 112.50459484 74.50390625 117.40625 C77.43628195 120.7125528 80.59581515 123.78221048 83.75 126.875 C88.24049613 131.31731131 92.60966048 135.77504568 96.69921875 140.59375 C102.12663263 147.18142747 102.12663263 147.18142747 109.25 151.375 C112.0342371 151.46638969 114.79284498 151.50098085 117.5769043 151.48852539 C118.43962605 151.48864593 119.30234781 151.48876646 120.19121265 151.48889065 C122.98557419 151.48814389 125.77986914 151.48052638 128.57421875 151.47265625 C130.29870573 151.4711861 132.02319315 151.47016584 133.74768066 151.46960449 C140.14429391 151.46436009 146.54089761 151.45039891 152.9375 151.4375 C167.230625 151.416875 181.52375 151.39625 196.25 151.375 C196.25 117.385 196.25 83.395 196.25 48.375 C171.995 47.88 171.995 47.88 147.25 47.375 C140.39644351 41.66370293 140.39644351 41.66370293 139.9375 37.625 C140.33246849 33.51732771 141.6557632 31.54573386 144.25 28.375 C147.58776052 26.18797657 150.43717158 26.10212113 154.3762207 26.05273438 C155.61463211 26.03351929 156.85304352 26.0143042 158.12898254 25.99450684 C159.47790791 25.98480957 160.82684189 25.97625223 162.17578125 25.96875 C163.56577048 25.95723591 164.95575969 25.94572059 166.3457489 25.9342041 C169.25842765 25.91321955 172.17099659 25.90151147 175.08374023 25.89453125 C178.80306602 25.88357296 182.52092314 25.83553406 186.23978901 25.77858734 C189.11128376 25.74120234 191.98242947 25.73091659 194.85414696 25.7278595 C196.22444875 25.72183394 197.59474641 25.70586927 198.96480751 25.67948914 C200.88810492 25.64510223 202.81201317 25.65285702 204.7355957 25.66210938 C205.82717484 25.65481812 206.91875397 25.64752686 208.04341125 25.64001465 C212.66872891 26.70018824 215.60829222 28.35995939 218.25 32.375 C219.26603524 36.70693614 219.17604138 40.93679283 219.1081543 45.36938477 C219.11560165 46.67896149 219.12304901 47.98853821 219.13072205 49.33779907 C219.14977075 52.91880183 219.12515829 56.4982869 219.09148383 60.07913327 C219.06253013 63.83106075 219.07023377 67.58293236 219.07295227 71.33494568 C219.07196322 77.63395236 219.04356607 83.9323694 218.99780273 90.23120117 C218.94516402 97.50910807 218.93113187 104.78628072 218.9388358 112.06435734 C218.94575556 119.07289775 218.92988166 126.08119023 218.90207863 133.089674 C218.89038688 136.06924457 218.88583117 139.04869929 218.88687706 142.0282917 C218.88672762 146.1892337 218.85281618 150.3492381 218.81518555 154.51000977 C218.82026123 156.36243034 218.82026123 156.36243034 218.82543945 158.25227356 C218.80201729 159.9534433 218.80201729 159.9534433 218.77812195 161.6889801 C218.77001511 163.16368192 218.77001511 163.16368192 218.7617445 164.6681757 C218.10129491 168.16156158 216.71229931 169.85255 214.25 172.375 C211.43689282 173.31270239 209.71602846 173.50448973 206.80500793 173.51544189 C205.89530243 173.52115204 204.98559692 173.52686218 204.04832458 173.53274536 C203.05244827 173.53386322 202.05657196 173.53498108 201.03051758 173.53613281 C199.97979065 173.54109772 198.92906372 173.54606262 197.84649658 173.55117798 C194.36250152 173.56580948 190.87855202 173.572604 187.39453125 173.578125 C184.97417703 173.58387654 182.55382282 173.58963427 180.13346863 173.59539795 C175.05341377 173.60591137 169.97337475 173.61175151 164.89331055 173.61523438 C158.39115519 173.62071355 151.88920982 173.64472803 145.38712025 173.67320633 C140.38475438 173.69185395 135.38243881 173.6970395 130.38004112 173.69857025 C127.98351585 173.70159353 125.58699139 173.70961105 123.19050026 173.72275543 C119.83232415 173.73985652 116.47465736 173.73792525 113.11645508 173.73144531 C111.63782234 173.74526749 111.63782234 173.74526749 110.12931824 173.7593689 C101.96688892 173.71016172 95.35815739 172.16991855 89.25 166.375 C87.58455717 164.51076426 85.95812625 162.61684235 84.3359375 160.71484375 C81.91015166 157.99378435 79.34581197 155.43164817 76.75 152.875 C73.65481222 149.82191301 70.6306367 146.751739 67.8125 143.4375 C64.79647173 139.898209 61.55552099 136.64005555 58.25 133.375 C54.37271626 129.54512306 50.6875639 125.65448694 47.15625 121.5 C44.1712195 118.17242502 40.97565091 115.05722394 37.77539062 111.9375 C35.01254444 109.22260709 32.40349399 106.43557579 29.875 103.5 C26.19763486 99.24880425 22.26111825 95.30927691 18.25 91.375 C13.63108964 86.84457451 9.1757637 82.26764952 4.98828125 77.33203125 C2.83887239 74.91213498 0.54476295 72.65664333 -1.75 70.375 C-1.75364563 71.57912033 -1.75729126 72.78324066 -1.76104736 74.02384949 C-1.79798002 85.36860183 -1.85573393 96.71308231 -1.93390274 108.05762768 C-1.97342083 113.89007383 -2.00558817 119.72236801 -2.02099609 125.55493164 C-2.03613397 131.18314194 -2.0705289 136.81093458 -2.11830902 142.43895912 C-2.13315237 144.58671757 -2.1410427 146.73453563 -2.14188385 148.8823452 C-2.14424632 151.88970912 -2.17126863 154.89591205 -2.20410156 157.90307617 C-2.1990712 158.79212143 -2.19404083 159.68116669 -2.18885803 160.59715271 C-2.25777107 164.67387145 -2.43229104 166.85377827 -4.59661865 170.40449524 C-7.42458893 172.99229925 -9.32787383 173.33591424 -13.125 173.6875 C-17.34334314 173.32384973 -18.79884992 172.32615008 -21.75 169.375 C-23.15374303 166.56751393 -22.88895708 164.23564666 -22.90390015 161.09391785 C-22.9082824 160.44236845 -22.91266465 159.79081905 -22.9171797 159.11952573 C-22.93058314 156.92627925 -22.93674998 154.73307297 -22.94287109 152.53979492 C-22.95077081 150.97127602 -22.95903967 149.40275893 -22.96765137 147.83424377 C-22.99388517 142.67466979 -23.00917967 137.51508763 -23.0234375 132.35546875 C-23.02879649 130.58058479 -23.034174 128.80570088 -23.03956985 127.03081703 C-23.06119997 119.64907504 -23.07993759 112.26733525 -23.09119225 104.88556957 C-23.10743744 94.29955027 -23.14062734 83.71389769 -23.19759309 73.12801665 C-23.23626543 65.68846921 -23.25582167 58.24901997 -23.26111281 50.80937463 C-23.26476982 46.36403902 -23.27682783 41.9190944 -23.30921555 37.47386742 C-23.33924905 33.29179123 -23.34562518 29.11034357 -23.33383179 24.9281826 C-23.33361066 23.39349019 -23.34194841 21.85876901 -23.35948563 20.32417679 C-23.38213935 18.22770379 -23.37390415 16.13351741 -23.35800171 14.03703308 C-23.36131186 12.86434466 -23.364622 11.69165625 -23.36803246 10.48343182 C-22.44477363 5.83984539 -19.6507326 3.65164746 -15.82714844 1.08349609 C-10.84384736 -0.61626175 -5.20461858 0.00530002 0 0 Z " fill="#FCFCFC" transform="translate(98.75,105.625)"/>
<path d="M0 0 C1.15525177 -0.01283524 2.31050354 -0.02567047 3.50076294 -0.03889465 C5.3834639 -0.04997505 5.3834639 -0.04997505 7.30419922 -0.0612793 C8.59196259 -0.06935104 9.87972595 -0.07742279 11.20651245 -0.08573914 C13.93861764 -0.10077156 16.67069681 -0.11060494 19.40283203 -0.11816406 C22.8863543 -0.12918819 26.36923064 -0.16353798 29.85252571 -0.20333576 C33.19055642 -0.23593661 36.52852168 -0.24029357 39.86669922 -0.2487793 C41.7311821 -0.27504143 41.7311821 -0.27504143 43.6333313 -0.30183411 C53.7086636 -0.27673025 59.51316328 1.76480725 66.63221741 8.84649658 C67.20330734 9.4350946 67.77439728 10.02369263 68.36279297 10.63012695 C68.97855698 11.24917908 69.59432098 11.8682312 70.22874451 12.50604248 C72.17755444 14.47046934 74.11176361 16.44861346 76.04638672 18.42700195 C77.3469436 19.73906818 78.64836935 21.05027376 79.95068359 22.3605957 C85.45505358 27.91846759 90.88907002 33.48849157 95.96411133 39.44555664 C98.80577225 42.68299587 101.90784694 45.66438567 104.98388672 48.67700195 C108.69416349 52.31077817 112.33003631 55.94335825 115.70263672 59.89575195 C120.64425648 65.62669681 126.10243762 70.86441966 131.48388672 76.17700195 C137.38359929 82.00121546 143.24293393 87.78755909 148.62841797 94.09887695 C152.85500482 98.83265423 157.46759838 103.22125754 161.98388672 107.67700195 C167.80670317 113.42175959 173.58595923 119.14008306 178.90576172 125.36303711 C181.55371585 128.40670964 184.38392778 131.26119012 187.23388672 134.11450195 C188.07886719 134.97785156 188.07886719 134.97785156 188.94091797 135.85864258 C193.08341852 140.01583285 195.59903941 141.27096754 201.37841797 141.38793945 C202.33425781 141.41629883 203.29009766 141.4446582 204.27490234 141.47387695 C206.27732653 141.52565263 208.27995718 141.57001371 210.28271484 141.60668945 C216.66473728 141.81242288 221.56111376 142.35165476 226.35888672 146.98950195 C227.88366197 149.95434273 227.88777629 151.87857042 227.48388672 155.17700195 C225.8162635 158.67106965 224.7438265 160.00370876 221.48388672 162.17700195 C218.8204693 162.42096219 216.26405127 162.55290172 213.59716797 162.58325195 C212.82132858 162.5946521 212.0454892 162.60605225 211.24613953 162.61779785 C209.60286905 162.63668471 207.95952304 162.64976067 206.31616211 162.6574707 C203.82186374 162.67680448 201.33092114 162.73880615 198.83740234 162.80200195 C184.34192289 163.00182633 184.34192289 163.00182633 179.12573242 157.98657227 C178.58392334 157.38941406 178.04211426 156.79225586 177.48388672 156.17700195 C176.13926871 154.90831258 174.79419914 153.64010165 173.44873047 152.37231445 C172.10106423 151.02072678 170.75863695 149.66389598 169.42138672 148.30200195 C168.75300781 147.63297852 168.08462891 146.96395508 167.39599609 146.2746582 C164.17637277 143.02687491 161.06185554 139.73204059 158.08154297 136.26293945 C153.95859817 131.48912627 149.47721518 127.09934576 144.98388672 122.67700195 C135.88518844 113.72204299 135.88518844 113.72204299 132.10888672 109.30200195 C127.38073633 103.79406369 122.14743639 98.77133072 116.98388672 93.67700195 C111.21372246 87.98419068 105.50156009 82.31563526 100.23193359 76.14770508 C96.67636426 72.13924758 92.80112307 68.43393441 88.98388672 64.67700195 C83.84310877 59.61743693 78.84488424 54.53561753 74.14599609 49.06176758 C71.40459284 45.95312581 68.44455478 43.07487792 65.48388672 40.17700195 C61.09573319 35.84498808 56.82921958 31.50063741 52.91357422 26.7277832 C49.8747439 23.43156561 48.30103564 22.25295773 43.64916992 21.82055664 C42.11098638 21.81429511 40.57267429 21.82470342 39.03466797 21.84887695 C38.22144577 21.85075012 37.40822357 21.85262329 36.57035828 21.85455322 C34.85651532 21.86126195 33.14268737 21.87515305 31.42895508 21.89575195 C28.79542945 21.92701332 26.1625017 21.93673447 23.52880859 21.94262695 C21.8640877 21.95179285 20.19937292 21.9621673 18.53466797 21.97387695 C17.74304764 21.97812683 16.95142731 21.98237671 16.13581848 21.98675537 C12.51044147 21.69785363 12.51044147 21.69785363 9.48388672 23.17700195 C9.38564629 25.32776307 9.35924126 27.48180778 9.35931396 29.6348114 C9.35719874 30.65879814 9.35719874 30.65879814 9.35504079 31.70347148 C9.35136913 34.00806377 9.35473232 36.31259523 9.35791016 38.6171875 C9.35651625 40.26275175 9.35461751 41.90831565 9.35224915 43.55387878 C9.34774246 47.10667395 9.34589585 50.65945753 9.34578705 54.21225548 C9.34464937 59.83023905 9.33183 65.44815649 9.31622314 71.06611633 C9.31365029 72.01324436 9.31107744 72.96037239 9.30842662 73.93620127 C9.30315968 75.87346591 9.2978742 77.81073049 9.29257059 79.74799502 C9.25743147 92.83265771 9.23090772 105.91723937 9.23339844 119.00195312 C9.23498677 127.81993575 9.21895501 136.63769412 9.18269181 145.45560485 C9.16422107 150.12394242 9.15489826 154.79190557 9.16716766 159.46027184 C9.17860282 163.8541698 9.16690463 168.24739789 9.13753319 172.64120674 C9.130891 174.25284489 9.13276226 175.86454432 9.14383125 177.47615814 C9.15770801 179.6796631 9.14080683 181.8809081 9.11639404 184.08427429 C9.1141942 185.93236458 9.1141942 185.93236458 9.11194992 187.81779003 C8.27405276 192.29930416 6.66444773 193.95493971 3.48388672 197.17700195 C0.33477193 198.75155935 -2.03620144 198.52499314 -5.51611328 198.17700195 C-8.49283912 196.40419634 -10.94415335 194.32092181 -12.51611328 191.17700195 C-12.62228374 188.77258515 -12.6683178 186.39657871 -12.67001343 183.99151611 C-12.67439568 183.24266702 -12.67877794 182.49381793 -12.68329298 181.72227645 C-12.69670403 179.19969549 -12.70286501 176.67714947 -12.70898438 174.15454102 C-12.71688354 172.35119467 -12.72515237 170.54784991 -12.73376465 168.74450684 C-12.76000656 162.81056228 -12.77529456 156.87661059 -12.78955078 150.94262695 C-12.79490959 148.9015477 -12.8002871 146.8604685 -12.80568314 144.81938934 C-12.82731514 136.33018226 -12.84605252 127.8409771 -12.85730553 119.35174942 C-12.87354853 107.17724917 -12.90673123 95.00306789 -12.96370637 82.82868791 C-13.00238293 74.27321052 -13.02193552 65.71781853 -13.02722609 57.162256 C-13.03088271 52.05012635 -13.04293698 46.93833674 -13.07532883 41.82630157 C-13.10536914 37.01635242 -13.11173571 32.20694978 -13.09994507 27.39692688 C-13.09972399 25.63206192 -13.10805706 23.8671719 -13.12559891 22.1023941 C-13.1482615 19.69107803 -13.14001091 17.28174855 -13.12411499 14.87042236 C-13.14493812 13.82478257 -13.14493812 13.82478257 -13.16618192 12.75801873 C-13.07624694 7.21439909 -11.28895338 4.94205622 -7.51611328 1.17700195 C-4.89765901 -0.13222518 -2.93246666 0.02831405 0 0 Z " fill="#FBFBFC" transform="translate(46.51611328125,33.822998046875)"/>
<path d="M0 0 C0.82043793 -0.00686325 1.64087585 -0.0137265 2.48617554 -0.02079773 C5.17903287 -0.03899409 7.87130379 -0.0352395 10.56420898 -0.02954102 C12.44555347 -0.03410536 14.32689629 -0.03941169 16.20823669 -0.04542542 C20.14296258 -0.05434175 24.07748532 -0.05194917 28.01220703 -0.04199219 C33.04834462 -0.03048811 38.08378252 -0.05074351 43.11982822 -0.07990932 C47.00181002 -0.0982722 50.88362402 -0.09797897 54.76563835 -0.0922718 C56.62234417 -0.09211869 58.47906142 -0.09815505 60.33572578 -0.11056328 C62.93259537 -0.12547811 65.52817032 -0.11479425 68.125 -0.09765625 C69.26836571 -0.1121582 69.26836571 -0.1121582 70.43482971 -0.12695312 C75.59575609 -0.05580386 78.53802616 1.12241156 82.49780273 4.40405273 C84.94643524 8.07700149 85.32963711 11.13674238 84.49780273 15.40405273 C81.96326617 18.62359918 80.38482969 20.10837708 76.49780273 21.40405273 C74.03038432 21.49302445 71.59113212 21.52698769 69.12402344 21.51416016 C67.57294208 21.51470285 66.02186074 21.51528986 64.47077942 21.51591492 C63.23777068 21.51377267 63.23777068 21.51377267 61.97985268 21.51158714 C57.61923707 21.50806344 53.25874983 21.53387842 48.89819336 21.55444336 C43.35259238 21.57875082 37.80736549 21.59450716 32.26171875 21.57910156 C27.77752223 21.56741019 23.29425344 21.5849176 18.81020164 21.62154579 C17.10589783 21.6301369 15.40150469 21.62811805 13.69722939 21.61504173 C2.03884988 21.21126453 2.03884988 21.21126453 -7.8394928 26.60112 C-8.38818527 27.1960878 -8.93687775 27.7910556 -9.50219727 28.40405273 C-10.46838234 29.31795525 -10.46838234 29.31795525 -11.4540863 30.25032043 C-13.5672973 32.25448586 -15.61109993 34.31336568 -17.65063477 36.39233398 C-18.38923737 37.13613815 -19.12783997 37.87994232 -19.88882446 38.64628601 C-22.22315114 40.99827708 -24.55060309 43.35691446 -26.87719727 45.71655273 C-29.22612672 48.09310817 -31.576519 50.4681708 -33.92984009 52.84037781 C-35.38832089 54.31111433 -36.8441202 55.7845158 -38.29696655 57.26081848 C-38.95169952 57.92208237 -39.6064325 58.58334625 -40.28100586 59.26464844 C-40.85644135 59.84833694 -41.43187683 60.43202545 -42.02474976 61.03340149 C-44.87179927 63.67465401 -47.56923284 63.81277333 -51.39672852 63.73608398 C-55.30088914 63.12040003 -57.02297251 61.36702866 -59.50219727 58.40405273 C-60.79139859 55.23526818 -61.01745153 52.77948832 -60.50219727 49.40405273 C-59.24804688 47.51228333 -59.24804688 47.51228333 -57.52954102 45.67285156 C-56.88976318 44.98123932 -56.24998535 44.28962708 -55.59082031 43.57705688 C-54.90157471 42.85996552 -54.2123291 42.14287415 -53.50219727 41.40405273 C-52.486698 40.3391713 -52.486698 40.3391713 -51.45068359 39.2527771 C-49.23495564 36.95633516 -46.9978852 34.68291643 -44.75219727 32.41577148 C-43.93525391 31.59075638 -43.11831055 30.76574127 -42.27661133 29.91572571 C-40.56030978 28.18568252 -38.8425138 26.45712072 -37.12329102 24.72998047 C-35.37141373 22.96651755 -33.62402962 21.19857991 -31.88110352 19.42626953 C-29.34786808 16.85041669 -26.80168843 14.2880241 -24.25219727 11.72827148 C-23.47908203 10.93764816 -22.7059668 10.14702484 -21.90942383 9.33244324 C-21.17175781 8.59770279 -20.4340918 7.86296234 -19.67407227 7.10595703 C-19.03566406 6.46168259 -18.39725586 5.81740814 -17.73950195 5.15361023 C-12.15412957 0.7858859 -6.81369983 -0.04034739 0 0 Z " fill="#FAFAFB" transform="translate(234.502197265625,33.595947265625)"/>
<path d="M0 0 C1.16662926 -0.00430527 1.16662926 -0.00430527 2.35682678 -0.00869751 C3.99659964 -0.01073275 5.63639707 -0.00524073 7.27612305 0.00732422 C9.77383267 0.02336478 12.26991899 0.00746941 14.76757812 -0.01171875 C16.36588896 -0.0097358 17.96419879 -0.00589104 19.5625 0 C20.67370461 -0.00910904 20.67370461 -0.00910904 21.80735779 -0.0184021 C26.55162861 0.04531126 29.84041809 0.84302109 33.84765625 3.3984375 C36.53233663 7.42545807 36.52953362 10.6668738 35.84765625 15.3984375 C33.70754715 18.9907635 31.71032988 20.88891103 27.84765625 22.3984375 C24.98193359 22.57446289 24.98193359 22.57446289 21.68359375 22.49609375 C19.87568359 22.49319336 19.87568359 22.49319336 18.03125 22.49023438 C15.51526275 22.47088063 12.9993217 22.42450591 10.484375 22.34960938 C3.83115956 22.38849639 -0.38522981 22.85271182 -5.45703125 27.36328125 C-7.04930395 29.0159144 -8.61454077 30.69500255 -10.15234375 32.3984375 C-11.76115503 33.99801391 -13.37570649 35.59183879 -14.99609375 37.1796875 C-16.55080943 38.75000233 -18.10290587 40.3229148 -19.65234375 41.8984375 C-21.22295316 43.4944613 -22.7957566 45.08832997 -24.37109375 46.6796875 C-25.05107422 47.37126953 -25.73105469 48.06285156 -26.43164062 48.77539062 C-29.66499735 51.82524242 -32.54073895 51.78544785 -36.82421875 51.7578125 C-40.74238611 51.15299472 -42.45593191 49.22966993 -45.15234375 46.3984375 C-46.58538439 43.53235621 -46.4587853 41.58542967 -46.15234375 38.3984375 C-43.27916129 33.44216507 -39.64172368 29.59478805 -35.59375 25.57421875 C-34.96758286 24.94613815 -34.34141571 24.31805756 -33.6962738 23.67094421 C-32.37834137 22.35165739 -31.05790633 21.03486634 -29.73510742 19.72045898 C-27.7175415 17.71362091 -25.71089087 15.69631206 -23.70507812 13.67773438 C-22.41860966 12.39258728 -21.13152104 11.10806061 -19.84375 9.82421875 C-19.24776505 9.22418533 -18.65178009 8.62415192 -18.03773499 8.00593567 C-12.28365429 2.31579772 -8.30550985 -0.06789843 0 0 Z " fill="#FBFBFC" transform="translate(247.15234375,74.6015625)"/>
<path d="M0 0 C0 4.90312435 -3.70199631 7.61341357 -7 11 C-8.62541044 12.38332804 -10.27385413 13.74462118 -12 15 C-12.66 14.67 -13.32 14.34 -14 14 C-9.38 9.38 -4.76 4.76 0 0 Z " fill="#1B204C" transform="translate(240,103)"/>
</svg>
